HIERARCHY
ROOT Hips
{
	OFFSET 0.000000 0.000000 0.000000 
	CHANNELS 6 Xposition Yposition Zposition Yrotation Zrotation Xrotation 
	JOINT Lumbar
	{
		OFFSET 0.000000 0.000000 0.000000 
		CHANNELS 3 Zrotation Xrotation Yrotation
		JOINT Neck
		{
			OFFSET 0.000000 0.445665 0.000000 
			CHANNELS 3 Zrotation Xrotation Yrotation
			End Site
			{
				OFFSET 0.000000 0.227535 0.000000 
			}
		}
		JOINT RightShoulder
		{
			OFFSET 0.019635 0.377685 0.194865 
			CHANNELS 3 Zrotation Xrotation Yrotation
			JOINT RightElbow
			{
				OFFSET 0.000000 -0.243375 0.000000 
				CHANNELS 2 Zrotation Yrotation
				JOINT RightWrist
				{
					OFFSET 0.000000 -0.264825 0.000000 
					CHANNELS 2 Zrotation Xrotation
					End Site
					{
						OFFSET 0.006600 -0.176220 0.000990 
					}
				}
			}
		}
		JOINT LeftShoulder
		{
			OFFSET 0.019635 0.377685 -0.194865 
			CHANNELS 3 Zrotation Xrotation Yrotation
			JOINT LeftElbow
			{
				OFFSET 0.000000 -0.243375 0.000000 
				CHANNELS 2 Zrotation Yrotation
				JOINT LeftWrist
				{
					OFFSET 0.000000 -0.264825 0.000000 
					CHANNELS 2 Zrotation Xrotation
					End Site
					{
						OFFSET 0.006600 -0.176220 -0.000990 
					}
				}
			}
		}
	}
	JOINT RightHip
	{
		OFFSET 0.052140 -0.069960 0.075570 
		CHANNELS 3 Zrotation Xrotation Yrotation
		JOINT RightKnee
		{
			OFFSET 0.000000 -0.402270 0.000000 
			CHANNELS 1 Zrotation
			JOINT RightAnkle
			{
				OFFSET 0.000000 -0.404085 0.000000 
				CHANNELS 3 Zrotation Xrotation Yrotation
				End Site
				{
					OFFSET 0.204105 -0.089430 0.008415 
				}
			}
		}
	}
	JOINT LeftHip
	{
		OFFSET 0.052140 -0.069960 -0.075570 
		CHANNELS 3 Zrotation Xrotation Yrotation
		JOINT LeftKnee
		{
			OFFSET 0.000000 -0.402270 0.000000 
			CHANNELS 1 Zrotation
			JOINT LeftAnkle
			{
				OFFSET 0.000000 -0.404085 0.000000 
				CHANNELS 3 Zrotation Xrotation Yrotation
				End Site
				{
					OFFSET 0.204105 -0.089430 -0.008415 
				}
			}
		}
	}
}
MOTION
Frames: 33
Frame Time: 0.02
-0.00018 2e-05 9e-05 178.2007 -45.23892 0.27399 56.14824 0.74945 2.72326 -5.6232 -1.82168 -1.24294 114.86878 -79.93424 55.63339 24.4673 103.07213 -55.09115 -5.61096 117.52397 74.86744 -55.63558 22.29819 -97.49417 -50.60576 5.37348 51.96491 -2.73296 -11.17494 -19.67909 -7.44557 -3.41571 -3.89711 55.95905 3.69562 5.85601 -23.97725 -8.22614 3.21699 3.86709
-0.0008 3e-05 -7e-05 178.23596 -45.21957 0.27706 56.21425 0.75515 2.77117 -5.72663 -1.79907 -1.24544 115.275 -79.5764 55.63344 25.32905 103.91393 -55.37249 -5.57847 117.67702 74.57111 -55.63527 23.09311 -98.11814 -50.87456 5.35226 51.89337 -2.73713 -11.21456 -19.67103 -7.43306 -3.40378 -3.89412 55.89479 3.74185 6.06394 -23.97551 -8.20938 3.19201 3.8536
-0.00141 4e-05 -0.00024 178.27119 -45.20023 0.28014 56.28006 0.76083 2.81891 -5.82974 -1.77651 -1.24794 115.68001 -79.21932 55.63349 26.18863 104.75307 -55.65323 -5.54627 117.82946 74.2755 -55.63497 23.88581 -98.74081 -51.14269 5.33117 51.82196 -2.74124 -11.25389 -19.66301 -7.42059 -3.3919 -3.89114 55.83066 3.78797 6.27132 -23.97378 -8.19266 3.16709 3.84015
-0.00202 5e-05 -0.0004 178.30636 -45.18093 0.2832 56.34588 0.76651 2.86667 -5.93285 -1.75396 -1.25044 116.08501 -78.86252 55.63353 27.04779 105.59227 -55.93374 -5.51392 117.98202 73.98004 -55.63467 24.67831 -99.36297 -51.4107 5.31003 51.75062 -2.74538 -11.29334 -19.65498 -7.40811 -3.38001 -3.88817 55.76658 3.83406 6.47862 -23.97205 -8.17595 3.14219 3.82671
-0.00264 6e-05 -0.00056 178.34154 -45.16163 0.28626 56.4119 0.77223 2.91461 -6.03628 -1.73136 -1.25294 116.49114 -78.50512 55.63358 27.90896 106.43415 -56.21478 -5.48116 118.13519 73.68396 -55.63436 25.47295 -99.98615 -51.67931 5.28873 51.67917 -2.7496 -11.33322 -19.64692 -7.39559 -3.36807 -3.88516 55.70242 3.88026 6.68646 -23.97031 -8.15919 3.11723 3.81323
-0.00325 7e-05 -0.00073 178.37687 -45.14223 0.28935 56.47727 0.77781 2.96192 -6.13871 -1.70889 -1.25542 116.89373 -78.14876 55.63363 28.76518 107.26746 -56.49486 -5.45012 118.28609 73.38938 -55.63406 26.26154 -100.60769 -51.94637 5.26808 51.60786 -2.75349 -11.37142 -19.63899 -7.38322 -3.35632 -3.88224 55.63835 3.92621 6.89287 -23.96859 -8.14254 3.09241 3.79983
-0.00387 8e-05 -0.00089 178.41185 -45.12305 0.29238 56.54386 0.78367 3.01045 -6.24304 -1.68619 -1.25794 117.30314 -77.79063 55.63368 29.63026 108.11708 -56.7765 -5.41577 118.44147 73.09204 -55.63376 27.06137 -101.23196 -52.21634 5.24618 51.53635 -2.75801 -11.41278 -19.6308 -7.37057 -3.34421 -3.87917 55.57414 3.9726 7.10188 -23.96683 -8.12571 3.06735 3.78629
-0.00448 0.0001 -0.00105 178.44716 -45.10369 0.29547 56.60934 0.78927 3.05785 -6.3456 -1.66369 -1.26042 117.70604 -77.43428 55.63372 30.48746 108.95168 -57.05681 -5.38426 118.59257 72.79736 -55.63345 27.85095 -101.85347 -52.48348 5.22535 51.46504 -2.76201 -11.45155 -19.62285 -7.35817 -3.33241 -3.87623 55.51009 4.0186 7.30858 -23.96511 -8.10904 3.0425 3.77287
-0.00509 0.00011 -0.00122 178.48287 -45.08398 0.29862 56.67346 0.79456 3.10392 -6.44614 -1.64145 -1.26286 118.102 -77.07928 55.63376 31.33432 109.76816 -57.33523 -5.35709 118.73905 72.50532 -55.63316 28.62791 -102.47294 -52.74786 5.20616 51.39385 -2.76512 -11.48586 -19.61518 -7.3461 -3.32107 -3.87349 55.44607 4.06408 7.51222 -23.96343 -8.09258 3.01792 3.75963
-0.00573 0.00012 -0.00137 178.51626 -45.0659 0.3014 56.74541 0.80164 3.15778 -6.55872 -1.61777 -1.26556 118.54095 -76.71402 55.63383 32.23859 110.68965 -57.62375 -5.30757 118.91397 72.19623 -55.63283 29.47724 -103.10819 -53.03025 5.17853 51.32158 -2.77261 -11.54193 -19.60586 -7.33222 -3.30731 -3.86972 55.3814 4.11242 7.73276 -23.96148 -8.07492 2.99181 3.74544
-0.00631 0.00013 -0.00155 178.55457 -45.04462 0.30497 56.80083 0.80493 3.19511 -6.64562 -1.59712 -1.26772 118.88722 -76.37208 55.63384 33.02293 111.38907 -57.89143 -5.30351 119.02771 71.92436 -55.63257 30.17393 -103.70745 -53.27322 5.16807 51.25186 -2.77131 -11.55461 -19.60005 -7.32207 -3.29853 -3.86803 55.31842 4.15481 7.91807 -23.96013 -8.05979 2.96891 3.73323
-0.0067 0.00011 -0.00177 178.60637 -45.01244 0.31054 56.8105 0.79793 3.18738 -6.66375 -1.58486 -1.26841 118.99306 -76.08084 55.63367 33.46511 111.47748 -58.09688 -5.44001 118.98152 71.74519 -55.63249 30.44737 -104.23008 -53.41883 5.21104 51.18711 -2.74192 -11.42563 -19.60374 -7.32309 -3.3046 -3.87295 55.2574 4.18 8.00199 -23.96023 -8.05181 2.95521 3.72673
-0.00704 0.0001 -0.00202 178.66307 -44.97745 0.31693 56.80364 0.78709 3.163 -6.6558 -1.57561 -1.26857 119.00324 -75.8154 55.63344 33.78898 111.34316 -58.28173 -5.6196 118.87245 71.6051 -55.63248 30.56812 -104.71293 -53.52284 5.27045 51.12532 -2.70436 -11.25681 -19.61098 -7.32772 -3.31546 -3.87982 55.19856 4.19933 8.05126 -23.96094 -8.04633 2.94466 3.72218
-0.00739 8e-05 -0.00225 178.71756 -44.94516 0.32306 56.80461 0.77792 3.14602 -6.65867 -1.56492 -1.26899 119.04818 -75.54695 55.63324 34.17595 111.31191 -58.48014 -5.76871 118.78696 71.45332 -55.63243 30.76189 -105.19893 -53.63883 5.31778 51.06349 -2.67323 -11.12158 -19.6167 -7.3301 -3.32337 -3.8852 55.14048 4.22197 8.11965 -23.9615 -8.03955 2.9324 3.71654
-0.00777 7e-05 -0.00249 178.77212 -44.90688 0.32873 56.80424 0.76906 3.12967 -6.66577 -1.55457 -1.26931 119.12987 -75.2421 55.633 34.5246 111.2726 -58.66339 -5.96245 118.72238 71.27613 -55.6324 30.94096 -105.74599 -53.78401 5.38313 50.99612 -2.63094 -10.9228 -19.62206 -7.33499 -3.33454 -3.89309 55.07502 4.24203 8.17434 -23.96157 -8.03345 2.9213 3.71171
-0.0081 5e-05 -0.00273 178.82752 -44.88036 0.33553 56.80271 0.75867 3.10809 -6.65798 -1.54422 -1.26972 119.11217 -75.01876 55.63285 34.92336 111.197 -58.87009 -6.0753 118.59941 71.16098 -55.63236 31.11328 -106.15881 -53.85848 5.41667 50.94102 -2.60957 -10.84454 -19.62897 -7.33556 -3.3401 -3.89628 55.02541 4.26588 8.24856 -23.96277 -8.02657 2.90857 3.7057
-0.00833 0 -0.00294 178.88551 -44.88731 0.34529 56.80221 0.74465 3.07614 -6.6146 -1.53303 -1.2705 118.84551 -75.01767 55.63301 35.50351 111.07957 -59.1738 -5.93838 118.33051 71.20866 -55.63224 31.31499 -106.19161 -53.74822 5.34244 50.91876 -2.65139 -11.12988 -19.63972 -7.32286 -3.32866 -3.88538 55.01957 4.3032 8.39237 -23.96718 -8.01668 2.89018 3.69562
-0.00852 -5e-05 -0.00315 178.94386 -44.90611 0.35613 56.80105 0.7293 3.03955 -6.55729 -1.52177 -1.27139 118.48214 -75.09697 55.63326 36.13524 110.93318 -59.4963 -5.72172 118.00517 71.31707 -55.6321 31.51333 -106.09499 -53.56801 5.23835 50.90877 -2.71396 -11.53417 -19.65182 -7.30576 -3.31148 -3.86981 55.0295 4.34425 8.55575 -23.97265 -8.00598 2.87012 3.68436
-0.00874 -9e-05 -0.00336 179.00115 -44.91927 0.36645 56.80006 0.71476 3.00503 -6.50694 -1.51058 -1.27221 118.16126 -75.13724 55.63346 36.73452 110.79688 -59.79293 -5.55173 117.70562 71.39715 -55.63198 31.70613 -106.06925 -53.4198 5.15867 50.89338 -2.76477 -11.86991 -19.66302 -7.29094 -3.29714 -3.85681 55.0319 4.38255 8.70547 -23.97747 -7.99582 2.85107 3.67387
-0.00894 -0.00014 -0.00358 179.06259 -44.93344 0.37696 56.79907 0.69914 2.96991 -6.45308 -1.49927 -1.27307 117.84173 -75.18927 55.63371 37.36898 110.66354 -60.16386 -5.33842 117.40283 71.4823 -55.6318 31.92304 -105.98825 -53.2699 5.03481 50.87744 -2.825 -12.26451 -19.6756 -7.27507 -3.28199 -3.84199 55.03599 4.42505 8.87397 -23.98305 -7.98502 2.83103 3.66243
-0.00915 -0.00018 -0.00378 179.11519 -44.94831 0.38727 56.79809 0.68559 2.93538 -6.4035 -1.48822 -1.2739 117.49953 -75.23518 55.63387 37.94237 110.52283 -60.38247 -5.19682 117.09476 71.57004 -55.63175 32.09142 -105.99581 -53.10666 4.99441 50.86543 -2.8708 -12.56642 -19.68553 -7.26031 -3.26711 -3.82981 55.04019 4.45981 9.00859 -23.98727 -7.97535 2.81267 3.65269
-0.00939 -0.00021 -0.00396 179.14504 -44.96284 0.3972 56.79782 0.67749 2.90165 -6.36974 -1.47725 -1.27467 117.1027 -75.2478 55.63374 38.34889 110.34647 -60.19715 -5.26324 116.78171 71.65636 -55.63207 32.12323 -106.24699 -52.93188 5.20249 50.86209 -2.87029 -12.57356 -19.68824 -7.24943 -3.25422 -3.82628 55.04145 4.47198 9.04406 -23.98752 -7.96871 2.79884 3.64778
-0.00962 -0.00022 -0.00413 179.16566 -44.97759 0.40681 56.79757 0.67165 2.86908 -6.34076 -1.46664 -1.27543 116.68962 -75.25083 55.63353 38.69017 110.1692 -59.85529 -5.40546 116.46647 71.74184 -55.63252 32.10784 -106.5971 -52.74559 5.49349 50.86216 -2.85482 -12.48514 -19.68816 -7.23985 -3.24181 -3.82553 55.04217 4.47631 9.04514 -23.98635 -7.96328 2.78683 3.64465
-0.00986 -0.00024 -0.00431 179.18933 -44.99182 0.41627 56.79703 0.6652 2.83736 -6.30934 -1.45625 -1.27619 116.29502 -75.25588 55.63337 39.05238 110.00784 -59.56966 -5.51983 116.15522 71.82337 -55.6329 32.11687 -106.92465 -52.55838 5.73946 50.8601 -2.84721 -12.44726 -19.68906 -7.22982 -3.22925 -3.82334 55.04267 4.48443 9.06261 -23.98578 -7.95749 2.77429 3.64078
-0.0101 -0.00026 -0.00449 179.21778 -45.00815 0.42695 56.79759 0.65698 2.79977 -6.27864 -1.44424 -1.27697 115.85094 -75.27329 55.63316 39.45278 109.77898 -59.34245 -5.60635 115.82901 71.92529 -55.63332 32.11262 -107.15693 -52.39132 6.01555 50.86077 -2.83596 -12.38425 -19.69119 -7.21905 -3.2162 -3.8217 55.0456 4.49171 9.07728 -23.98541 -7.95086 2.76047 3.63656
-0.01033 -0.00028 -0.00465 179.23415 -45.02013 0.43505 56.79592 0.65293 2.77463 -6.24766 -1.43569 -1.2777 115.50633 -75.26203 55.63303 39.75792 109.69205 -58.96263 -5.76647 115.53454 71.98382 -55.63367 32.12555 -107.60803 -52.18471 6.24884 50.85659 -2.82834 -12.3484 -19.69011 -7.2102 -3.20439 -3.81966 55.04327 4.49885 9.08964 -23.98429 -7.94628 2.74976 3.63351
-0.01057 -0.00028 -0.00477 179.21883 -45.01889 0.43575 56.78791 0.66047 2.78447 -6.21571 -1.4366 -1.2783 115.44917 -75.17049 55.63317 39.81319 109.98718 -58.14426 -6.14175 115.32501 71.92174 -55.63375 32.1925 -108.68217 -51.83581 6.34516 50.83664 -2.83543 -12.41834 -19.68063 -7.20618 -3.19558 -3.81555 55.02544 4.50723 9.10167 -23.98134 -7.94724 2.74727 3.63335
-0.0108 -0.00028 -0.00488 179.19178 -45.01345 0.43393 56.77773 0.672 2.80663 -6.18327 -1.441 -1.27886 115.49124 -75.05088 55.63337 39.77586 110.42665 -57.18827 -6.58358 115.14803 71.816 -55.63372 32.2797 -109.96652 -51.45465 6.39554 50.81194 -2.84639 -12.51693 -19.66804 -7.20408 -3.18809 -3.81103 55.00252 4.51576 9.11287 -23.97769 -7.95021 2.74784 3.63429
-0.01104 -0.00028 -0.00499 179.17048 -45.01062 0.43348 56.76862 0.68129 2.82258 -6.15045 -1.44378 -1.27944 115.48292 -74.94574 55.63358 39.78153 110.80756 -56.33118 -6.97488 114.95904 71.73043 -55.63377 32.36044 -111.12612 -51.11201 6.46597 50.79032 -2.85479 -12.59698 -19.65698 -7.2012 -3.18023 -3.80691 54.98255 4.5244 9.12594 -23.97441 -7.95218 2.74698 3.6347
-0.01128 -0.00028 -0.0051 179.14705 -45.00477 0.43205 56.75901 0.69247 2.84117 -6.12009 -1.44666 -1.27999 115.49741 -74.8323 55.63378 39.778 111.1611 -55.31395 -7.45282 114.75968 71.64302 -55.63381 32.42641 -112.40928 -50.66778 6.54227 50.76484 -2.86605 -12.69711 -19.64533 -7.19797 -3.1714 -3.80196 54.95974 4.53202 9.13167 -23.97084 -7.95456 2.74638 3.63533
-0.01151 -0.00028 -0.00521 179.12542 -45.00431 0.43207 56.75011 0.70064 2.85713 -6.0847 -1.45022 -1.2806 115.48681 -74.73059 55.6338 39.77639 111.60293 -54.6011 -7.76711 114.58783 71.54964 -55.6337 32.53049 -113.48771 -50.42818 6.59498 50.74636 -2.87249 -12.7634 -19.63424 -7.19592 -3.16491 -3.79859 54.94179 4.54188 9.15276 -23.96774 -7.95654 2.74591 3.63571
-0.01173 -0.00029 -0.00532 179.11153 -45.01867 0.43664 56.74234 0.69954 2.86319 -6.03336 -1.45434 -1.28143 115.39304 -74.66017 55.63409 39.77221 112.27828 -54.74979 -7.59556 114.49889 71.44591 -55.63376 32.72142 -113.91366 -50.75722 6.5881 50.74711 -2.86461 -12.7301 -19.6253 -7.19667 -3.16454 -3.79969 54.93722 4.55835 9.21815 -23.96598 -7.95692 2.74527 3.63527
-0.01195 -0.0003 -0.00543 179.09992 -45.03878 0.44275 56.73562 0.69527 2.86611 -5.97738 -1.45911 -1.28231 115.26763 -74.6045 55.63329 39.78109 113.03225 -55.21196 -7.25978 114.43305 71.3387 -55.63307 32.95465 -114.13175 -51.29406 6.55963 50.75529 -2.85185 -12.66217 -19.6171 -7.19854 -3.16647 -3.80236 54.93796 4.57704 9.2989 -23.96474 -7.95682 2.74459 3.63452
